<svg xmlns="http://www.w3.org/2000/svg" width="800" height="800" viewBox="-0.5 0 48 48"><g fill="none" fill-rule="evenodd"><path fill="#FBBC05" d="M9.83 24c0-1.52.25-2.99.7-4.36l-7.9-6.04A23.46 23.46 0 0 0 .2 24c0 3.74.87 7.26 2.41 10.39l7.9-6.05c-.44-1.37-.7-2.82-.7-4.34"/><path fill="#EB4335" d="M23.71 10.13c3.31 0 6.3 1.18 8.66 3.1L39.2 6.4A23.41 23.41 0 0 0 23.71.53 23.43 23.43 0 0 0 2.62 13.6l7.91 6.04a13.85 13.85 0 0 1 13.18-9.5"/><path fill="#34A853" d="M23.71 37.87a13.85 13.85 0 0 1-13.18-9.51l-7.9 6.03A23.43 23.43 0 0 0 23.7 47.47a22.4 22.4 0 0 0 15.31-5.85l-7.5-5.8a14.54 14.54 0 0 1-7.8 2.05"/><path fill="#4285F4" d="M46.15 24c0-1.39-.22-2.88-.54-4.27h-21.9v9.07h12.6a10.57 10.57 0 0 1-4.8 7.01l7.51 5.8c4.32-4 7.13-9.96 7.13-17.61"/></g></svg>